# xmcd
#
# Track frame offsets:
#	150
#	70083
#	131392
#
# Disc length: 2620 seconds
#
# Revision: 7
# Processed by: cddbd v1.5.2PL0 Copyright (c) Steve Scherf et al.
# Submitted via: EZCDAudioConverter 8.0.2.1
#
DISCID=200a3a03
DTITLE=Johnny Dũng, Vina, Diễm Liên - Liên Khúc Happy Party. Thì Thầm... Yêu 2
DYEAR=2004
DGENRE=Contemporary Pop
TTITLE0=Part 1. LK Chacha
TTITLE1=Part 2. LK Trance
TTITLE2=Part 3. LK Rave
EXTD=
EXTT0=
EXTT1=
EXTT2=
PLAYORDER=
